<svg viewBox="0 0 100 100" xmlns="http://www.w3.org/2000/svg" fill="none" stroke="#FF6600" stroke-width="5.5" stroke-linecap="round" stroke-linejoin="round">
  <!-- Antenna Ring -->
  <circle cx="50" cy="15" r="7" />
  <!-- Antenna Stem -->
  <line x1="50" y1="22" x2="50" y2="28" />

  <!-- Left Ear -->
  <path d="M 22 42 H 16 A 4 4 0 0 0 12 46 V 54 A 4 4 0 0 0 16 58 H 22" />
  
  <!-- Right Ear -->
  <path d="M 78 42 H 84 A 4 4 0 0 1 88 46 V 54 A 4 4 0 0 1 84 58 H 78" />

  <!-- Face / Speech Bubble -->
  <path d="M 34 28 
           H 66 
           A 12 12 0 0 1 78 40 
           V 60 
           A 12 12 0 0 1 66 72 
           H 58 
           L 61 88 
           L 44 72 
           H 34 
           A 12 12 0 0 1 22 60 
           V 40 
           A 12 12 0 0 1 34 28 
           Z" />

  <!-- Eyes -->
  <circle cx="36" cy="48" r="6.5" fill="#FF6600" stroke="none" />
  <circle cx="64" cy="48" r="6.5" fill="#FF6600" stroke="none" />

  <!-- Smile -->
  <path d="M 40 60 Q 50 70 60 60" stroke-width="5" />
</svg>
